<svg width="390" height="163" viewBox="0 0 390 163" fill="none" xmlns="http://www.w3.org/2000/svg">
<path d="M404.06 67.9651L402.344 67.9131L354.077 64.6579C354.077 64.6579 340.973 54.8351 327.729 48.5275C319.087 44.4143 316.835 43.2339 306.991 41.1123C298.968 39.3807 287.97 39.0791 283.363 38.7775C278.755 38.4759 262.745 39.0375 259.349 39.9735C255.953 40.9095 262.365 48.1271 268.439 51.1691C274.517 54.2111 284.746 54.9651 284.746 54.9651C284.746 54.9651 289.748 76.4723 293.144 86.5863C296.534 96.7003 298.973 105.811 304.038 108.978C309.103 112.144 323.741 116.954 334.312 114.874C344.884 112.8 351.207 108.92 357.369 110.267C363.531 111.619 411.896 125.337 411.896 125.337L404.065 67.9599L404.06 67.9651Z" fill="#C35E1A"/>
<g style="mix-blend-mode:multiply" opacity="0.5">
<path d="M407.523 93.3255C406.124 93.1799 404.725 93.0291 403.326 92.8835C393.462 91.8435 383.603 90.9283 373.707 90.2783C368.138 89.9091 362.444 89.4047 357.031 88.0059C353.765 87.1635 350.291 85.8895 347.348 84.3191C346.771 84.0123 346.22 83.6587 345.679 83.2999C344.889 83.7835 344.083 84.2411 343.23 84.6363C334.972 88.5207 326.933 88.5831 318.717 84.4647C315.524 82.8631 313.366 80.2007 312.175 77.1119C311.057 74.2207 309.752 71.4023 308.099 68.7815C306.154 65.6979 304.641 62.3283 303.559 58.8703C303.533 58.7819 303.507 58.6987 303.476 58.6103C301.593 52.4691 295.53 48.6627 289.181 49.6715C286.768 50.0563 284.345 50.3215 281.911 50.3579C277.335 50.4255 272.39 49.6507 267.939 48.8551C266.384 48.5743 264.829 48.1843 263.29 47.7111C264.866 49.0475 266.66 50.2851 268.433 51.1743C274.512 54.2163 284.74 54.9703 284.74 54.9703C284.74 54.9703 289.743 76.4775 293.138 86.5915C296.529 96.7055 298.968 105.816 304.032 108.983C309.097 112.149 323.735 116.959 334.307 114.879C344.878 112.805 351.201 108.925 357.363 110.272C363.525 111.624 411.891 125.342 411.891 125.342L407.523 93.3255Z" fill="#C35E1A"/>
</g>
<path d="M321.343 85.6704C333.719 91.224 345.679 83.294 345.679 83.294" stroke="#6D1913" stroke-width="0.5" stroke-linecap="round" stroke-linejoin="round"/>
<path d="M260.353 39.7601C262.459 46.9673 277.403 45.7349 277.695 44.4141C277.986 43.0933 277.611 40.2437 276.296 38.7305" stroke="#6D1913" stroke-width="0.5" stroke-linecap="round" stroke-linejoin="round"/>
<path opacity="0.53" d="M220.525 36.9785C201.722 44.6537 188.462 55.7453 190.911 61.7513L229.562 156.469C232.012 162.475 249.244 161.123 268.053 153.448C286.856 145.773 300.116 134.681 297.667 128.675L259.015 33.9573C256.566 27.9513 239.333 29.3033 220.525 36.9785Z" fill="white"/>
<path opacity="0.53" d="M308.618 105.717C307.245 102.358 291.915 54.1125 288.39 51.9597C285.753 50.3477 274.693 51.4761 266.799 53.0465L271.105 63.6026C277.818 61.5278 283.715 61.3041 284.386 62.0061C285.259 62.9265 300.984 104.901 300.787 105.52C300.672 105.889 295.509 109.196 290.756 111.755L293.694 118.951C301.026 114.708 309.611 108.156 308.618 105.717Z" fill="white"/>
<path d="M289.961 110.449C309.752 105.52 313.043 99.0769 306.991 95.9465C311.983 93.3673 315.004 88.2818 312.081 85.687C310.475 84.2622 308.166 84.075 308.166 84.075C312.03 79.239 304.937 75.8954 297.563 73.1446C297.563 73.1446 306.601 75.2609 305.228 70.7577C303.855 66.2545 284.282 56.6137 278.406 58.3973C272.535 60.1861 276.742 70.3626 276.742 70.3626C267.075 70.1962 264.829 78.6774 272.728 86.467C271.48 91.3238 273.289 95.567 278.406 99.1394C278.406 99.1394 276.222 113.871 289.955 110.449H289.961Z" fill="#C35E1A"/>
<path d="M278.41 99.1392C288.196 95.858 301.674 94.5788 306.989 95.9464" stroke="#6D1913" stroke-width="0.5" stroke-linecap="round" stroke-linejoin="round"/>
<path d="M272.731 86.467C281.005 79.8578 308.164 84.0698 308.164 84.0698" stroke="#6D1913" stroke-width="0.5" stroke-linecap="round" stroke-linejoin="round"/>
<path d="M276.745 70.3625C285.996 70.7525 290.489 71.4129 297.566 73.1393" stroke="#6D1913" stroke-width="0.5" stroke-linecap="round" stroke-linejoin="round"/>
<path d="M296.162 63.5503C292.745 62.5467 291.274 68.9063 293.333 69.8839C295.387 70.8615 304.596 74.2571 305.231 70.7523" stroke="#6D1913" stroke-width="0.5" stroke-linecap="round" stroke-linejoin="round"/>
<path d="M296.901 73.9975C292.866 74.0703 293.458 79.6135 295.434 80.9967C297.41 82.3799 308.206 83.3939 308.455 81.1943" stroke="#6D1913" stroke-width="0.5" stroke-linecap="round" stroke-linejoin="round"/>
<path d="M298.622 83.0501C296.412 83.3465 296.61 92.3997 299.839 92.6961C303.068 92.9873 313.676 93.3357 312.028 86.4717" stroke="#6D1913" stroke-width="0.5" stroke-linecap="round" stroke-linejoin="round"/>
<path d="M297.951 97.2724C295.164 98.5204 296.927 105.494 301.113 104.61C305.299 103.731 309.418 101.895 308.164 98.224" stroke="#6D1913" stroke-width="0.5" stroke-linecap="round" stroke-linejoin="round"/>
<path opacity="0.53" d="M259.01 33.962C256.561 27.956 239.328 29.308 220.52 36.9832C201.717 44.6584 188.457 55.75 190.906 61.756C193.355 67.762 210.588 66.41 229.396 58.7348C248.2 51.0596 261.46 39.968 259.01 33.962ZM248.527 43.2336C243.291 47.378 235.928 51.4912 227.795 54.8088C219.662 58.1264 211.529 60.3416 204.884 61.0436C198.228 61.7456 195.414 60.6952 194.79 60.17C194.868 59.3588 196.148 56.6392 201.394 52.4844C206.631 48.34 213.994 44.2268 222.127 40.9092C230.26 37.5916 238.392 35.3764 245.038 34.6744C251.694 33.9724 254.507 35.0228 255.131 35.548C255.053 36.3592 253.774 39.0788 248.527 43.2336Z" fill="white"/>
<path opacity="0.65" d="M261.397 50.8102L288.603 117.474C286.43 112.144 271.147 113.345 254.465 120.152C237.789 126.959 226.032 136.792 228.205 142.122L194.795 60.2482C194.79 59.5462 195.965 56.785 201.399 52.4846C206.636 48.335 214.004 44.227 222.127 40.9094C230.259 37.5918 225.605 38.3198 230.566 39.027C248.569 41.601 260.913 50.3058 261.402 50.8102H261.397Z" fill="#F1AB00"/>
<path opacity="0.43" d="M288.603 117.479C290.777 122.809 279.019 132.642 262.338 139.449C245.661 146.256 230.379 147.457 228.205 142.127C226.031 136.797 237.789 126.964 254.465 120.157C271.147 113.35 286.429 112.149 288.603 117.479Z" fill="#F1AB00"/>
<path opacity="0.76" d="M261.396 50.8103C255.952 45.6467 236.405 37.9715 218.195 37.9611C199.99 37.9455 189.298 52.8435 190.619 59.5983C191.94 66.3531 201.778 77.3667 201.778 77.3667C227.175 62.8275 249.977 79.4415 270.616 73.3939L261.402 50.8103H261.396Z" fill="white"/>
<path d="M241.485 88.292C241.485 88.8328 241.043 89.2748 240.502 89.2748C239.961 89.2748 239.519 88.8328 239.519 88.292C239.519 87.7512 239.961 87.3092 240.502 87.3092C241.043 87.3092 241.485 87.7512 241.485 88.292Z" stroke="#FAEAC2" stroke-width="0.5" stroke-linecap="round" stroke-linejoin="round"/>
<path d="M231.069 125.914C231.611 125.914 232.051 125.474 232.051 124.931C232.051 124.389 231.611 123.949 231.069 123.949C230.526 123.949 230.086 124.389 230.086 124.931C230.086 125.474 230.526 125.914 231.069 125.914Z" stroke="#FAEAC2" stroke-width="0.5" stroke-linecap="round" stroke-linejoin="round"/>
<path d="M263.763 108.021C264.656 108.021 265.38 107.297 265.38 106.403C265.38 105.51 264.656 104.786 263.763 104.786C262.869 104.786 262.145 105.51 262.145 106.403C262.145 107.297 262.869 108.021 263.763 108.021Z" stroke="#FAEAC2" stroke-width="0.5" stroke-linecap="round" stroke-linejoin="round"/>
<path d="M268.072 86.7168C268.072 87.2576 267.635 87.6944 267.095 87.6944C266.554 87.6944 266.117 87.2576 266.117 86.7168C266.117 86.176 266.554 85.7392 267.095 85.7392C267.635 85.7392 268.072 86.176 268.072 86.7168Z" stroke="#FAEAC2" stroke-width="0.5" stroke-linecap="round" stroke-linejoin="round"/>
<path d="M240.502 112.337C240.502 113.33 239.696 114.131 238.708 114.131C237.72 114.131 236.914 113.325 236.914 112.337C236.914 111.349 237.72 110.543 238.708 110.543C239.696 110.543 240.502 111.349 240.502 112.337Z" stroke="#FAEAC2" stroke-width="0.5" stroke-linecap="round" stroke-linejoin="round"/>
<path d="M235.146 73.2904C235.632 73.2904 236.025 72.897 236.025 72.4116C236.025 71.9263 235.632 71.5328 235.146 71.5328C234.661 71.5328 234.268 71.9263 234.268 72.4116C234.268 72.897 234.661 73.2904 235.146 73.2904Z" stroke="#FAEAC2" stroke-width="0.5" stroke-linecap="round" stroke-linejoin="round"/>
<path d="M217.435 85.7389C217.435 86.2797 216.998 86.7165 216.457 86.7165C215.917 86.7165 215.48 86.2797 215.48 85.7389C215.48 85.1981 215.917 84.7613 216.457 84.7613C216.998 84.7613 217.435 85.1981 217.435 85.7389Z" stroke="#FAEAC2" stroke-width="0.5" stroke-linecap="round" stroke-linejoin="round"/>
<path d="M226.915 107.381C226.915 107.922 226.478 108.359 225.937 108.359C225.396 108.359 224.959 107.922 224.959 107.381C224.959 106.84 225.396 106.404 225.937 106.404C226.478 106.404 226.915 106.84 226.915 107.381Z" stroke="#FAEAC2" stroke-width="0.5" stroke-linecap="round" stroke-linejoin="round"/>
<path d="M251.443 77.1382C251.443 77.5854 251.079 77.9442 250.637 77.9442C250.195 77.9442 249.831 77.5802 249.831 77.1382C249.831 76.6962 250.195 76.3322 250.637 76.3322C251.079 76.3322 251.443 76.6962 251.443 77.1382Z" stroke="#FAEAC2" stroke-width="0.5" stroke-linecap="round" stroke-linejoin="round"/>
<path d="M263.123 91.2198C263.123 91.7606 262.686 92.1974 262.145 92.1974C261.604 92.1974 261.167 91.7606 261.167 91.2198C261.167 90.679 261.604 90.2422 262.145 90.2422C262.686 90.2422 263.123 90.679 263.123 91.2198Z" stroke="#FAEAC2" stroke-width="0.5" stroke-linecap="round" stroke-linejoin="round"/>
<path d="M245.458 108.926C245.458 109.363 245.104 109.721 244.662 109.721C244.22 109.721 243.866 109.368 243.866 108.926C243.866 108.484 244.22 108.13 244.662 108.13C245.104 108.13 245.458 108.484 245.458 108.926Z" stroke="#FAEAC2" stroke-width="0.5" stroke-linecap="round" stroke-linejoin="round"/>
<path d="M232.489 91.2201C232.489 92.0053 231.855 92.6397 231.07 92.6397C230.284 92.6397 229.65 92.0053 229.65 91.2201C229.65 90.4349 230.284 89.8005 231.07 89.8005C231.855 89.8005 232.489 90.4349 232.489 91.2201Z" stroke="#FAEAC2" stroke-width="0.5" stroke-linecap="round" stroke-linejoin="round"/>
<path d="M251.442 59.5155C252.226 59.5155 252.862 58.88 252.862 58.096C252.862 57.3119 252.226 56.6763 251.442 56.6763C250.658 56.6763 250.023 57.3119 250.023 58.096C250.023 58.88 250.658 59.5155 251.442 59.5155Z" stroke="#FAEAC2" stroke-width="0.5" stroke-linecap="round" stroke-linejoin="round"/>
<path d="M276.903 104.786C276.903 105.572 276.268 106.206 275.483 106.206C274.698 106.206 274.064 105.572 274.064 104.786C274.064 104.001 274.698 103.367 275.483 103.367C276.268 103.367 276.903 104.001 276.903 104.786Z" stroke="#FAEAC2" stroke-width="0.5" stroke-linecap="round" stroke-linejoin="round"/>
<g style="mix-blend-mode:multiply" opacity="0.19">
<path d="M255.277 145.981L216.626 51.263C214.53 46.1254 219.709 38.9962 228.57 34.051C225.949 34.8934 223.256 35.871 220.526 36.9838C201.723 44.659 188.463 55.7506 190.912 61.7566L229.563 156.475C232.013 162.481 249.245 161.129 268.054 153.453C270.784 152.341 273.389 151.15 275.854 149.923C266.062 152.585 257.373 151.119 255.277 145.981Z" fill="#F1AB00"/>
</g>
<g style="mix-blend-mode:screen" opacity="0.41">
<path d="M249.691 30.2182C244.819 30.1246 238.439 31.1334 231.398 33.1822C248.672 65.8434 256.628 90.4446 256.628 90.4446C256.628 90.4446 275.13 94.2614 270.429 79.873C266.539 67.965 257.018 42.5266 249.691 30.2182Z" fill="white"/>
</g>
<path d="M259.176 131.701C277.979 124.026 295.212 122.674 297.667 128.68C300.116 134.686 286.861 145.778 268.053 153.453C249.249 161.128 232.017 162.48 229.562 156.474L196.771 76.1185" stroke="white" stroke-linecap="round" stroke-linejoin="round"/>
<path d="M220.525 36.9781C208.825 42.5629 207.234 48.1425 205.824 55.1937C204.415 62.2397 200.453 76.3369 193.256 78.0997C186.059 79.8625 185.061 67.1381 188.264 58.8649C191.467 50.5917 195.461 44.3309 204.119 40.0721C212.782 35.8133 220.52 36.9833 220.52 36.9833L220.525 36.9781Z" fill="white"/>
<path d="M191.788 89.7999C186.11 87.3455 187.145 100.501 186.531 108.021C185.917 115.54 179.168 126.486 190.618 123.948C202.069 121.411 196.78 91.9579 191.788 89.7999Z" fill="white"/>
<path d="M196.192 129.804C188.174 131.249 191.876 148.94 200.202 145.456C208.527 141.972 201.772 128.8 196.192 129.804Z" fill="white"/>
<path d="M158.491 32.7303C155.824 14.2287 134.239 1.86827 126.309 12.2319C118.379 22.5955 134.759 23.3287 142.397 24.3583C154.352 25.9755 158.486 32.7251 158.486 32.7251L158.491 32.7303Z" fill="white"/>
<path d="M151.991 36.8695C141.94 29.5999 127.676 30.5619 126.631 37.5559C125.612 44.3679 151.991 36.8695 151.991 36.8695Z" fill="white"/>
<path d="M118.188 69.0203C137.568 72.7643 170.651 75.5047 172.023 79.4203C173.396 83.3359 165.955 87.9848 151.078 88.302C136.201 88.6192 131.708 88.1043 121.739 92.1447C111.771 96.1851 104.683 97.9843 99.5926 96.5335C94.5018 95.0827 118.188 69.0203 118.188 69.0203Z" fill="#C35E1A"/>
<path opacity="0.89" d="M181.216 87.1637C186.083 76.2645 180.394 65.8281 180.394 65.8281C191.101 51.8401 203.914 32.7093 213.185 16.4541L212.972 16.3761C211.963 17.5253 208.053 16.1161 204.137 13.1729C200.222 10.2297 197.783 6.8601 198.61 5.5757L198.475 5.39371C185.428 18.8097 170.608 36.4325 160.14 50.5973C160.14 50.5973 148.534 48.0285 139.418 55.7297C130.297 63.4309 77.9439 133.241 77.5227 138.041C74.3715 142.232 81.1783 152.663 92.7223 161.342C104.266 170.021 116.174 173.666 119.325 169.475C123.818 167.738 176.359 98.0629 181.221 87.1637H181.216Z" fill="#2C161C"/>
<path d="M214.246 19.2937C216.169 16.7366 213.515 11.4961 208.318 7.58853C203.121 3.68101 197.35 2.58624 195.427 5.14331C193.504 7.70038 196.159 12.941 201.355 16.8485C206.552 20.756 212.324 21.8508 214.246 19.2937Z" fill="#2C161C"/>
<g style="mix-blend-mode:multiply" opacity="0.79">
<path d="M213.02 16.3294C212.084 17.5722 208.106 16.1578 204.139 13.173C200.166 10.1882 197.706 6.75621 198.642 5.51341C199.578 4.27061 203.556 5.68501 207.524 8.66981C211.497 11.6546 213.956 15.0866 213.02 16.3294Z" fill="#2C161C"/>
</g>
<g style="mix-blend-mode:screen" opacity="0.79">
<path d="M197.139 12.7151C191.689 18.0763 162.938 46.7855 164.192 54.7363C166.012 66.2907 193.176 24.2175 199.084 14.8991C198.35 14.1815 197.7 13.4535 197.144 12.7151H197.139Z" fill="#2C161C"/>
</g>
<path opacity="0.75" d="M177.414 85.4685C175.459 89.8469 163.296 107.282 147.836 127.874C131.155 150.094 119.777 163.884 117.364 165.798C116.865 166.063 116.423 166.432 116.07 166.874C115.919 166.937 115.508 167.051 114.775 167.051C111.02 167.051 103.512 164.259 95.2123 158.014C84.2039 149.735 80.5639 142.185 80.9123 140.443C81.2399 139.98 81.4687 139.45 81.5883 138.893C82.7583 136.044 92.8463 121.291 109.564 99.0925C111.702 96.2585 113.792 93.5025 115.825 90.8453C112.029 97.3349 156.838 93.3205 167.908 85.0993C178.792 77.0237 176.816 68.1473 176.743 67.8301C176.904 68.1421 181.288 76.7949 177.414 85.4685Z" fill="#F1AB00"/>
<g opacity="0.85">
<path d="M167.908 85.0993C156.838 93.3205 112.029 97.3349 115.825 90.8453C115.83 90.8453 115.83 90.8401 115.83 90.8401C116.049 90.5541 116.267 90.2681 116.486 89.9873C122.237 83.8305 149.188 79.7693 159.297 78.8333C169.869 77.8557 176.738 67.8197 176.738 67.8197C176.738 67.8197 176.738 67.8197 176.743 67.8301C176.816 68.1473 178.792 77.0237 167.908 85.0993Z" fill="#FFF0CC"/>
<path d="M178.517 61.4239C181.075 53.7279 185.631 39.5215 190.914 34.2903C196.197 29.0591 200.211 29.9067 200.211 29.9067C193.176 41.2271 185.958 51.7935 178.517 61.4239Z" fill="#FFF0CC"/>
<path d="M170.358 68.7041C174.585 64.7105 173.296 57.9193 170.358 58.0961C167.42 58.2781 167.716 71.2001 170.358 68.7041Z" fill="#FFF0CC"/>
</g>
<g opacity="0.7">
<path opacity="0.79" d="M196.619 7.52557C197.758 8.38356 198.944 8.98157 199.999 9.28317C198.715 7.68677 198.143 6.29837 198.606 5.57557L198.47 5.39357C197.82 6.06437 197.165 6.74557 196.505 7.43717C196.541 7.46837 196.578 7.49437 196.619 7.52557Z" fill="#2C161C"/>
<path opacity="0.79" d="M213.186 16.454L212.973 16.376C211.964 17.5252 208.054 16.116 204.138 13.1728C203.275 12.5228 202.49 11.8572 201.793 11.1968C203.935 20.5984 182.35 46.3488 172.184 59.7076C172.184 59.7076 172.288 65.8904 166.709 76.254C161.129 86.6176 108.625 156.313 104.813 158.565C102.088 162.189 95.1411 161.711 88.3395 157.769C89.7071 158.981 91.1683 160.177 92.7179 161.342C104.262 170.02 116.17 173.666 119.321 169.474C123.814 167.738 176.355 98.0628 181.217 87.1636C186.084 76.2644 180.395 65.828 180.395 65.828C191.102 51.84 203.915 32.7092 213.186 16.454Z" fill="#2C161C"/>
</g>
<path d="M-10.2368 59.4531C10.3188 63.2699 41.7372 66.7956 58.476 65.324C75.2148 63.8576 101.641 58.2052 107.517 58.096C113.393 57.9868 146.278 65.0327 151.27 70.6123C156.262 76.1919 157.728 91.4592 158.316 98.8016C158.904 106.144 157.874 110.252 156.995 110.694C156.116 111.136 148.01 108.931 146.262 102.031C144.515 95.1304 141.723 85.5883 138.639 83.2379C135.556 80.8875 117.205 77.3672 117.205 77.3672C117.205 77.3672 135.613 96.6592 138.936 102.473C143.049 109.67 149.798 132.867 149.949 135.508C150.095 138.15 140.698 137.859 136.736 132.867C136.736 132.867 141.874 145.201 140.896 146.569C139.918 147.942 133.065 147.354 127.386 142.066C121.708 136.782 118.245 131.296 116.16 126.211C114.074 121.125 100.57 107.616 100.57 107.616C100.57 107.616 111.646 122.69 115.603 130.714C119.56 138.743 124.261 150.484 121.713 152.055C119.17 153.62 111.532 148.727 105.463 140.698C99.3948 132.669 88.2356 118.775 78.6416 115.447C64.1648 121.598 51.248 118.853 39.0956 111.729L-3.19082 115.447L-10.2368 59.4531Z" fill="#C35E1A"/>
<path d="M136.735 132.861C128.759 113.481 119.653 101.12 106.737 89.3057" stroke="#6D1913" stroke-width="0.5" stroke-linecap="round" stroke-linejoin="round"/>
<path d="M100.569 67.8299C96.0659 69.4367 96.6535 73.1547 96.6535 73.1547" stroke="#6D1913" stroke-width="0.5" stroke-linecap="round" stroke-linejoin="round"/>
<path d="M89.6017 80.9445C86.4713 81.3761 86.2737 86.0769 86.2737 86.0769" stroke="#6D1913" stroke-width="0.5" stroke-linecap="round" stroke-linejoin="round"/>
<path d="M80.8918 94.0691C78.6402 94.6879 78.2502 98.9935 78.2502 98.9935" stroke="#6D1913" stroke-width="0.5" stroke-linecap="round" stroke-linejoin="round"/>
<path d="M118.359 136.683C116.269 135.466 110.985 137.229 111.079 139.58C111.178 141.93 119.092 152.642 122.425 149.881" stroke="#6D1913" stroke-width="0.5" stroke-linecap="round" stroke-linejoin="round"/>
<path d="M136.008 131.119C133.106 128.129 126.154 130.969 127.428 134.785C128.702 138.602 136.881 147.427 140.719 144.088" stroke="#6D1913" stroke-width="0.5" stroke-linecap="round" stroke-linejoin="round"/>
<path d="M145.695 119.949C139.663 118.629 135.669 120.391 136.735 124.895C137.801 129.398 144.155 138.581 149.787 134.478" stroke="#6D1913" stroke-width="0.5" stroke-linecap="round" stroke-linejoin="round"/>
<path d="M158.02 95.3485C156.891 94.1577 150.625 93.4765 150.235 96.2169C149.845 98.9573 150.308 110.829 157.708 109.539" stroke="#6D1913" stroke-width="0.5" stroke-linecap="round" stroke-linejoin="round"/>
<g style="mix-blend-mode:multiply" opacity="0.5">
<path d="M82.7026 108.063C69.4894 102.338 69.4894 110.705 60.2698 109.717C51.0502 108.729 41.737 100.679 41.737 100.679C41.737 100.679 16.7822 97.1693 -6.04578 92.7701L-3.19098 115.437L39.0954 111.719C51.2478 118.843 64.1646 121.588 78.6414 115.437C88.2354 118.765 99.3946 132.665 105.463 140.688C111.531 148.717 119.165 153.61 121.713 152.045C102.577 143.616 95.921 113.783 82.7078 108.063H82.7026Z" fill="#C35E1A"/>
</g>
</svg>
